<svg width="24" height="24" viewBox="0 0 24 24" fill="none" xmlns="http://www.w3.org/2000/svg">
<path d="M11.29 8.78223H12.7408V21.2439H11.29V8.78223Z" fill="#6A2FF9"/>
<path d="M11.29 17.6626H12.7408V21.2438H11.29V17.6626Z" fill="#6A2FF9"/>
<path d="M11.29 8.78223H12.7408V10.308H11.29V8.78223Z" fill="#6A2FF9"/>
<path d="M13.8262 21.6143V21.19C13.8262 20.965 13.6434 20.7822 13.4184 20.7822H10.6129C10.3879 20.7822 10.2051 20.965 10.2051 21.19V21.6143H13.8262Z" fill="#6A2FF9"/>
<path d="M14.5521 4.02412C14.5521 2.62256 13.4154 1.48584 12.0139 1.48584C10.6123 1.48584 9.47559 2.62256 9.47559 4.02412H14.5521Z" fill="#6A2FF9"/>
<path d="M14.5521 4.02432C14.5521 3.53213 14.4115 3.0751 14.1701 2.68604H9.85762C9.61621 3.0751 9.47559 3.53213 9.47559 4.02432H14.5521Z" fill="#6A2FF9"/>
<path d="M14.5527 3.70557H9.47852L10.2801 8.78213H13.7512L14.5527 3.70557Z" fill="#6A2FF9"/>
<path d="M14.1512 6.5835H9.87852C9.69102 6.5835 9.53867 6.43115 9.53867 6.24365C9.53867 6.05615 9.69102 5.90381 9.87852 5.90381H14.1512C14.3387 5.90381 14.491 6.05615 14.491 6.24365C14.491 6.43115 14.3387 6.5835 14.1512 6.5835ZM14.552 4.42959H9.47773C9.0793 4.42959 8.75586 4.10615 8.75586 3.70771C8.75586 3.30928 9.0793 2.98584 9.47773 2.98584H14.5543C14.9527 2.98584 15.2762 3.30928 15.2762 3.70771C15.2762 4.10381 14.9527 4.42959 14.552 4.42959ZM13.7504 9.50615H10.2816C9.8832 9.50615 9.55977 9.18271 9.55977 8.78428C9.55977 8.38584 9.8832 8.0624 10.2816 8.0624H13.7504C14.1488 8.0624 14.4723 8.38584 14.4723 8.78428C14.4723 9.18271 14.1488 9.50615 13.7504 9.50615Z" fill="#6A2FF9"/>
<path d="M14.4352 22.5072C14.55 22.5072 14.6461 22.4135 14.6461 22.2963V22.1486C14.6461 21.8205 14.3812 21.5557 14.0531 21.5557H9.97969C9.65156 21.5557 9.38672 21.8205 9.38672 22.1486V22.2963C9.38672 22.4111 9.48047 22.5072 9.59766 22.5072H14.4352Z" fill="#6A2FF9"/>
<path d="M6.67224 8.18913C6.53162 8.18913 6.40271 8.10242 6.35349 7.96179C6.29021 7.78601 6.38396 7.59148 6.55974 7.53054L8.19099 6.95632C8.36677 6.89304 8.5613 6.98679 8.62224 7.16257C8.68552 7.33835 8.59177 7.53288 8.41599 7.59382L6.78474 8.16804C6.74958 8.18445 6.70974 8.18913 6.67224 8.18913ZM8.30583 5.75867C8.29177 5.75867 8.27771 5.75867 8.2613 5.75632L6.14724 5.48445C5.96208 5.46101 5.83083 5.28992 5.85427 5.10476C5.87771 4.9196 6.0488 4.78835 6.23396 4.81179L8.34802 5.08367C8.53318 5.1071 8.66443 5.2782 8.64099 5.46335C8.6199 5.63445 8.47224 5.75867 8.30583 5.75867ZM17.3574 8.18913C17.3199 8.18913 17.2824 8.1821 17.2449 8.17038L15.6136 7.59617C15.4379 7.53288 15.3441 7.3407 15.4074 7.16492C15.4707 6.98913 15.6629 6.89538 15.8386 6.95867L17.4699 7.53288C17.6457 7.59617 17.7394 7.78835 17.6761 7.96413C17.6269 8.10242 17.4957 8.18913 17.3574 8.18913ZM15.7238 5.75867C15.5551 5.75867 15.4097 5.63445 15.3886 5.46335C15.3652 5.2782 15.4965 5.1071 15.6816 5.08367L17.7957 4.81179C17.9808 4.78835 18.1519 4.9196 18.1754 5.10476C18.1988 5.28992 18.0676 5.46101 17.8824 5.48445L15.7683 5.75632C15.7543 5.75867 15.7402 5.75867 15.7238 5.75867Z" fill="#6A2FF9"/>
</svg>
