<svg width="24" height="24" viewBox="0 0 24 24" fill="none" xmlns="http://www.w3.org/2000/svg">
<path d="M10.1798 20.9225L13.7423 19.4103C13.8756 20.2906 13.4044 21.183 12.547 21.5469C11.6897 21.9108 10.7204 21.6299 10.1798 20.9225ZM15.6125 3.09197C17.6982 4.23151 19.264 5.69464 20.2942 7.47906C21.3245 9.26347 21.8087 11.351 21.7527 13.7271C21.7429 14.1412 21.3993 14.469 20.9852 14.4592C20.5711 14.4495 20.2434 14.1059 20.2531 13.6918C20.3029 11.5804 19.8816 9.7644 18.9952 8.22906C18.1088 6.69371 16.7467 5.42089 14.8933 4.40831C14.5298 4.20972 14.3961 3.75405 14.5947 3.39055C14.7933 3.02705 15.249 2.89337 15.6125 3.09197ZM6.46266 7.51352C9.32441 6.23939 12.6668 7.44414 14.0622 10.259L14.1604 10.4685L15.4478 13.3603L17.1461 14.8301C17.2388 14.9103 17.3191 15.0037 17.4122 15.1549L17.4709 15.2692C17.7503 15.9005 17.465 16.6387 16.8337 16.9181L6.5071 21.4883C6.34777 21.5588 6.17546 21.5952 6.00122 21.5952C5.31087 21.5952 4.75122 21.0356 4.75122 20.3456L4.75014 18.0026L3.50776 15.2113C2.19426 12.2611 3.51694 8.82504 6.46266 7.51352ZM15.3749 6.69261C16.3419 7.21989 17.1169 7.98725 17.6912 8.98192C18.2655 9.9766 18.5425 11.0314 18.5157 12.1325C18.5056 12.5466 18.1617 12.8741 17.7476 12.864C17.3335 12.8539 17.006 12.51 17.0161 12.0959C17.0362 11.2743 16.8304 10.491 16.3922 9.73192C15.9539 8.97286 15.3784 8.40299 14.6568 8.00956C14.2932 7.81126 14.1591 7.3557 14.3574 6.99204C14.5557 6.62837 15.0113 6.49432 15.3749 6.69261Z" fill="#6A2FF9"/>
</svg>
