<svg width="21" height="20" viewBox="0 0 21 20" fill="none" xmlns="http://www.w3.org/2000/svg">
<path d="M8.82706 0L6.39228 3.4C7.20388 3.2 8.01547 3 8.82706 3C9.63866 3 10.4503 3.2 11.2618 3.4M17.9575 3C16.8314 3 15.9285 3.89 15.9285 5V11.76C15.2792 12.33 14.914 13.15 14.914 14C14.914 15.66 16.2734 17 17.9575 17C19.6416 17 21.001 15.66 21.001 14C21.001 13.15 20.6358 12.33 19.9865 11.77V5C19.9865 3.89 19.0836 3 17.9575 3ZM17.9575 4C18.5155 4 18.972 4.45 18.972 5V6H16.943V5C16.943 4.45 17.3995 4 17.9575 4ZM4.26185 4.7L0.000976562 5L1.82706 8.8C1.92851 8 2.23286 7.2 2.63866 6.5C3.1459 5.8 3.65315 5.2 4.26185 4.7ZM8.82706 5C5.98648 5 3.7546 7.2 3.7546 10C3.7546 12.8 5.98648 15 8.82706 15C11.6676 15 13.8995 12.8 13.8995 10C13.8995 7.2 11.6676 5 8.82706 5ZM1.92851 11.2L0.102426 15L4.26185 15.4C3.7546 14.9 3.1459 14.2 2.74011 13.5C2.23286 12.8 2.02996 12 1.92851 11.2ZM6.39228 16.6L8.82706 20L11.2618 16.6C10.4503 16.8 9.63866 17 8.82706 17C7.91402 17 7.10243 16.8 6.39228 16.6V16.6Z" fill="#6A2FF9"/>
</svg>
